<svg xmlns="http://www.w3.org/2000/svg" viewBox="0 0 900 300"><defs><linearGradient id="paper" x2="0" y2="1"><stop stop-color="#fff8e9"/><stop offset="1" stop-color="#edddbc"/></linearGradient></defs><path fill="url(#paper)" d="M0 0h900v300H0z"/><g stroke="#302722" stroke-width="4" stroke-linejoin="round" stroke-linecap="round">
<g><path fill="#344f6c" d="M45 300v-45q5-55 80-61h52q75 12 78 61v45"/><path fill="#f5efdf" d="m118 195 33 59 33-59-20-15h-30z"/><path fill="#dca679" d="M130 166h42v40q-21 22-42 0z"/><ellipse fill="#efbd8b" cx="151" cy="113" rx="63" ry="75"/><path fill="#47423f" d="M91 94q-13-53 45-67 69-7 78 67l-19-26q-60 13-97 0z"/><path fill="#fff4df" d="M119 155q29 15 57 0l-4 14h-48z"/><path fill="none" d="m149 106-6 26 17 1M108 91q14-9 26 0m35 0q13-10 24 0"/><rect fill="#f3e9d5" fill-opacity=".7" x="100" y="99" width="42" height="27" rx="8"/><rect fill="#f3e9d5" fill-opacity=".7" x="160" y="99" width="42" height="27" rx="8"/><path d="M142 107h18"/><circle cx="123" cy="110" r="4"/><circle cx="180" cy="110" r="4"/><path fill="#daab55" d="m145 225-8 12 14 47 13-47-8-12z"/><rect fill="#885d3d" x="184" y="261" width="86" height="43" rx="6"/><path fill="none" d="M205 261v-14h34v14"/><path fill="#fff6e4" d="m34 242 57-12 17 70H47z"/><path fill="none" stroke="#b99260" d="m48 255 34-5m-31 17 34-5m-31 17 34-5"/></g>
<g transform="translate(300)"><path fill="#b23e59" d="M48 300v-46q2-50 65-62h63q65 13 76 71v37"/><path fill="#282628" d="M88 137q-30-99 60-109 82 4 69 108l-10 75-27-13-73 7z"/><path fill="#e9b28d" d="M127 163h43v45q-22 23-43 0z"/><ellipse fill="#f0bf9b" cx="149" cy="115" rx="57" ry="72"/><path fill="#282628" d="M91 93q0-73 64-64 59-1 65 76l-33-30q-53 26-89 14z"/><path fill="#f0bf9b" d="m220 218-7-34-17-14 1-33q3-13 10-3l3 26 14-12q10-4 11 9l-5 11q21 9 16 28l-8 27z"/><path fill="#efc568" d="m72 217 19-19 92 102h-41z"/><path fill="#e7a95d" d="M49 285h203v15H49z"/><path fill="none" d="m147 106-6 25 13 2m-37-39 19-3m30 0 18 5"/><path fill="#fff8ee" d="M123 153q27 17 51-1l-9 19h-28z"/><circle cx="125" cy="110" r="4"/><circle cx="174" cy="110" r="4"/><circle fill="#bd3c51" cx="150" cy="87" r="5"/><circle fill="#efc568" cx="95" cy="137" r="8"/><circle fill="#efc568" cx="203" cy="137" r="8"/><path fill="none" d="m181 264-16-60"/><rect fill="#525563" x="146" y="178" width="28" height="45" rx="12" transform="rotate(-16 160 200)"/></g>
<g transform="translate(600)"><path fill="#75957b" d="M48 300v-45q9-53 70-61h66q61 7 67 63v43"/><path fill="#faf1dd" d="m115 196 36 57 36-57-19-17h-37z"/><path fill="#e0aa7c" d="M129 162h43v43q-20 19-43 0z"/><ellipse fill="#efbc8e" cx="150" cy="113" rx="60" ry="73"/><path fill="#ece6d8" d="M91 97q-12-55 48-64 67-10 74 54l-19-24q-39 11-71 1z"/><path fill="#ebe4d7" d="m120 146 29-10 33 9-7 12-25-5-28 7z"/><path fill="#fff8e8" d="M131 167q18 9 38-1l-7 13h-23z"/><path fill="none" d="m151 109-5 24 12 2m-48-44 22-5m35 0 23 7"/><circle cx="122" cy="108" r="4"/><circle cx="178" cy="108" r="4"/><path fill="#d4a053" d="m93 210 14-14 80 104h-27z"/><path fill="#f3dc8b" d="m189 204 15 9-64 87h-27z"/><path fill="#efbc8e" d="m81 264 44-17 27 11 18-6 36 11-4 21-35 10-22-6-20 5-42-11z"/><path fill="none" d="m127 249 23 20 14-7m-19 18 17 9m-37-19 20 18"/><path fill="#75957b" d="m56 257 29-3 9 41H54zm183 0-29-3-9 41h40z"/></g></g></svg>
